<?xml version="1.0" standalone="no"?>
<!DOCTYPE svg PUBLIC "-//W3C//DTD SVG 20010904//EN"
 "http://www.w3.org/TR/2001/REC-SVG-20010904/DTD/svg10.dtd">
<svg version="1.0" xmlns="http://www.w3.org/2000/svg"
 width="700.000000pt" height="700.000000pt" viewBox="0 0 700.000000 700.000000"
 preserveAspectRatio="xMidYMid meet">
<metadata>
Created by potrace 1.11, written by Peter Selinger 2001-2013
</metadata>
<g transform="translate(0.000000,700.000000) scale(0.100000,-0.100000)"
fill="#000000" stroke="none">
<path d="M1587 6994 c-1 -1 -24 -5 -50 -8 -168 -23 -307 -139 -411 -343 -29
-57 -65 -181 -72 -246 -7 -66 -7 -317 0 -372 10 -73 23 -156 30 -185 29 -127
43 -181 73 -280 46 -154 103 -311 153 -425 10 -22 30 -69 46 -105 41 -93 189
-382 241 -468 23 -41 43 -76 43 -78 0 -6 230 -363 247 -384 29 -36 240 -334
260 -368 40 -66 38 -69 -139 -203 -213 -160 -324 -264 -437 -404 -31 -38 -58
-72 -61 -75 -17 -16 -134 -207 -169 -276 -89 -177 -156 -395 -178 -574 -8 -67
-8 -358 0 -420 25 -197 109 -455 209 -638 46 -84 122 -198 187 -277 61 -76
246 -265 300 -305 18 -14 49 -40 69 -57 20 -18 42 -33 48 -33 6 0 17 -7 24
-15 7 -9 61 -44 119 -79 256 -154 534 -266 791 -317 58 -11 112 -22 120 -24
16 -3 80 -11 165 -21 66 -7 431 -7 520 1 465 39 913 210 1284 488 109 82 292
260 369 359 193 247 348 585 378 821 3 23 7 48 10 56 23 69 22 381 -1 516 -23
133 -28 152 -76 295 -99 300 -317 615 -580 840 -35 30 -66 57 -69 60 -3 3 -41
32 -85 64 -113 83 -135 105 -135 137 0 18 30 68 94 155 393 537 634 949 821
1399 76 185 173 501 191 625 3 19 7 41 10 48 2 8 7 35 9 60 3 26 9 78 14 116
12 109 6 318 -14 415 -44 221 -182 408 -357 485 -66 29 -112 38 -210 41 -277
10 -543 -152 -739 -450 -195 -296 -320 -544 -417 -830 -35 -100 -129 -411
-136 -447 -2 -13 -18 -84 -35 -158 -32 -143 -80 -405 -105 -580 -19 -128 -29
-218 -41 -365 -10 -122 -15 -148 -31 -173 -18 -27 -50 -41 -83 -35 -32 5 -192
11 -394 14 -174 2 -241 9 -259 27 -6 6 -12 37 -14 69 -3 54 -9 115 -19 208 -3
22 -7 60 -9 85 -18 161 -44 339 -76 500 -6 30 -13 66 -15 80 -55 306 -201 798
-301 1018 -13 29 -24 55 -24 58 0 11 -154 312 -174 339 -12 17 -30 47 -41 68
-31 59 -186 263 -248 326 -147 149 -344 235 -562 245 -30 1 -56 2 -58 0z"/>
</g>
</svg>
